# xmcd
#
# Track frame offsets:
#	150
#	27948
#	49857
#	74683
#	90178
#	113242
#	146483
#	168658
#	188735
#	222728
#	244840
#
# Disc length: 3728 seconds
#
# Revision: 2
# Processed by: cddbd v1.5.2PL0 Copyright (c) Steve Scherf et al.
# Submitted via: EasyCDDAExtractor 15.3.0.1
#
DISCID=a20e8e0b
DTITLE=Monica Naranjo - Coleccion Privada - CD 2 - Remixes
DYEAR=2005
DGENRE=Latin
TTITLE0=Enamorada De Ti (Kai Miller's Intimate Moment)
TTITLE1=Chicas Malas (Ferrero and Del Moral Single Remix)
TTITLE2=Desatame (Latins Do It Better Club Mix)
TTITLE3=Sacrificio (Corky Mix)
TTITLE4=No Voy A Llorar (La Fabrique Du Son Weekend Remix)
TTITLE5=If You Leave Me Now (Ferrero and Del Moral Extended Remix)
TTITLE6=Pantera En Libertad (Dub Apollo 440)
TTITLE7=No Puedo Seguir (Ferrero and Del Moral Spanish Batucada Remix)
TTITLE8=Sobrevivire (Pumpin' Dolls Armaggedon Club Mix)
TTITLE9=No Voy A Llorar (Wally Lopez and Dr. Kucho Weekend Remix)
TTITLE10=Entender El Amor (Ferrero and Del Moral Xtended Remix)
EXTD=
EXTT0=
EXTT1=
EXTT2=
EXTT3=
EXTT4=
EXTT5=
EXTT6=
EXTT7=
EXTT8=
EXTT9=
EXTT10=
PLAYORDER=
